# xmcd
#
# Track frame offsets: 
#        150
#        12932
#        29100
#        45102
#        57332
#        72620
#        85300
#        97210
#        110275
#        123710
#        136705
#        150000
#        163705
#        176465
#        190390
#        201965
#
# Disc length: 2865 seconds
#
# Revision: 1
# Processed by: cddbd v1.5.1PL2 Copyright (c) Steve Scherf et al.
# Submitted via: ExactAudioCopy v0.95b3
#
DISCID=d90b2f10
DTITLE=Tito Rodríguez - Mucho Cha Cha
DYEAR=1900
DGENRE=Latin
TTITLE0=Cha Cha Cha Para Ti
TTITLE1=This Is Mambo
TTITLE2=Baranga
TTITLE3=Así, Así
TTITLE4=Sabroso Mambo
TTITLE5=Todo Es Cha Cha Cha
TTITLE6=Rico Rica Cha Cha
TTITLE7=Agua Con Azúcar
TTITLE8=Piel Canela
TTITLE9=Sun Sun Babae
TTITLE10=Ya Soy Feliz
TTITLE11=La Rumba So Se Acabó
TTITLE12=La Renta
TTITLE13=El Rinconcito
TTITLE14=El Guaguancó Del Caramelero
TTITLE15=Los Cacos Del Amor
EXTD=
EXTT0=
EXTT1=
EXTT2=
EXTT3=
EXTT4=
EXTT5=
EXTT6=
EXTT7=
EXTT8=
EXTT9=
EXTT10=
EXTT11=
EXTT12=
EXTT13=
EXTT14=
EXTT15=
PLAYORDER=
